<?xml version="1.0" encoding="UTF-8"?>
<!-- Compact favicon: R + ball on dark tile (64¯64) -->
<svg xmlns="http://www.w3.org/2000/svg" width="64" height="64" viewBox="0 0 64 64" fill="none" aria-hidden="true">
  <defs>
    <linearGradient id="rtFavG" x1="0" y1="0" x2="1" y2="1">
      <stop offset="0%" stop-color="#1E4A8C"/>
      <stop offset="100%" stop-color="#4DB8FF"/>
    </linearGradient>
    <filter id="rtFavS" x="-30%" y="-30%" width="160%" height="160%">
      <feDropShadow dx="0" dy="1" stdDeviation="1.2" flood-color="#000" flood-opacity="0.35"/>
    </filter>
  </defs>
  <rect x="4" y="4" width="56" height="56" rx="12" fill="#0B1220"/>
  <g transform="translate(8, 9)" filter="url(#rtFavS)">
    <path
      fill="url(#rtFavG)"
      d="M 16 4
         L 16 36
         L 24 36
         L 24 24
         L 26 24
         L 38 36
         L 46 36
         L 30 22
         C 36 20 40 16 40 10
         C 40 6 36 4 30 4
         Z"/>
    <!-- Baseline y=36: center (34,32) + r=4 -->
    <g transform="translate(34, 32)">
      <circle cx="0" cy="0" r="4" fill="#ECECEC" stroke="#0A0A0A" stroke-width="0.55"/>
      <path d="M 0 -2.1 L 1.95 -0.65 L 1.15 1.75 L -1.15 1.75 L -1.95 -0.65 Z" fill="#0A0A0A"/>
    </g>
  </g>
</svg>
